<svg xmlns="http://www.w3.org/2000/svg" width="82.801" height="22" viewBox="0 0 82.801 22">
  <g id="Gruppe_25362" data-name="Gruppe 25362" transform="translate(-574 -6)">
    <text id="Aktionen" transform="translate(594.801 6)" fill="#c7c2bd" font-size="14" font-family="Oswald-Regular, Oswald" letter-spacing="0.002em"><tspan x="0" y="17">Aktionen</tspan></text>
    <path id="trending-topic" d="M23.221,26.279a9.426,9.426,0,0,0-2.231-11.9l-.006,0,.015.038,0,.028a6.926,6.926,0,0,1-.254,5.527l-.6,1.208-.183-1.334a5.66,5.66,0,0,0-.991-2.507h-.083l-.044-.124a9.775,9.775,0,0,1-.857,4.03,5.648,5.648,0,0,0,.3,5.188l.645,1.082-1.16-.49a7.732,7.732,0,0,1-3.779-10.876,11.17,11.17,0,0,0,1.2-3.292l.216-1.119.551,1a5.732,5.732,0,0,1,.577,1.532l.012.013.013.087.012,0A14.115,14.115,0,0,0,19.355,6.68l.037-.715.6.391a10.72,10.72,0,0,1,4.675,7.033l.012.059.006.009.027-.038a3.585,3.585,0,0,0,.733-2.181V10.009l.742.98a12.356,12.356,0,0,1,2.489,7.954,9.381,9.381,0,0,1-4.9,7.9l-1.265.691Z" transform="translate(560.966 0.035)" fill="#c7c2bd"/>
  </g>
</svg>
