<svg xmlns="http://www.w3.org/2000/svg" width="30.497" height="24.079" viewBox="0 0 30.497 24.079">
  <g id="_14-bucket_-cart_-online_-shopping" data-name="14-bucket,-cart,-online,-shopping" transform="translate(-5 -8.997)">
    <path id="Shape" d="M24.085,9.3l6.179,7.724h4.43a.8.8,0,1,1,0,1.605H32.93L30.139,31.19a2.416,2.416,0,0,1-2.35,1.885H12.708a2.419,2.419,0,0,1-2.35-1.885L7.566,18.63H5.8a.8.8,0,0,1,0-1.605h4.429L16.412,9.3a.8.8,0,1,1,1.253,1l-5.379,6.722H28.21L22.832,10.3a.811.811,0,0,1,.125-1.128.8.8,0,0,1,1.128.125ZM20.248,21.038a.8.8,0,0,0-.8.8v6.42a.8.8,0,0,0,1.605,0V21.84A.8.8,0,0,0,20.248,21.038Zm5.812.024a.8.8,0,0,0-.973.584l-1.605,6.42a.8.8,0,1,0,1.557.389l1.605-6.42a.807.807,0,0,0-.584-.973Zm-10.652.584a.8.8,0,1,0-1.557.389l1.605,6.42a.8.8,0,1,0,1.557-.389Z" transform="translate(0 0)" fill="#35383f"/>
  </g>
</svg>
