<svg id="layer2" xmlns="http://www.w3.org/2000/svg" width="19.199" height="19.199" viewBox="0 0 19.199 19.199">
  <path id="path822" d="M9.568,0A.6.6,0,0,0,9.24.12L.266,6.854a.6.6,0,1,0,.717.961L9.6,1.352l8.636,6.479a.6.6,0,0,0,.722-.961L9.961.12A.6.6,0,0,0,9.568,0ZM9.6,3.346a.579.579,0,0,0-.359.12L1.746,9.106a.6.6,0,0,0-.239.478c0,3.005,0,9.016,0,9.016a.6.6,0,0,0,.6.6H7.216a.6.6,0,0,0,.6-.6L7.8,13.806h3.6V18.6a.6.6,0,0,0,.6.6H17.09a.6.6,0,0,0,.6-.6V9.584a.6.6,0,0,0-.239-.478L9.961,3.466a.577.577,0,0,0-.363-.12Z" transform="translate(0 0)" fill="#35383f"/>
</svg>
