<svg xmlns="http://www.w3.org/2000/svg" width="19" height="19" viewBox="0 0 19 19">
  <g id="Gruppe_25663" data-name="Gruppe 25663" transform="translate(-1550.199 -8)">
    <circle id="Ellipse_2062" data-name="Ellipse 2062" cx="9.5" cy="9.5" r="9.5" transform="translate(1550.199 8)" fill="#c7c2bd"/>
    <path id="Pfad_98656" data-name="Pfad 98656" d="M2.268,14.158H3.6V12.8c1.484-1.26,2.646-2.478,2.646-4.368A2.6,2.6,0,0,0,3.43,5.562,2.428,2.428,0,0,0,.756,8.1a2.785,2.785,0,0,0,.154.882l1.4-.266a3.12,3.12,0,0,1-.1-.7A1.115,1.115,0,0,1,3.43,6.864c.882,0,1.344.644,1.344,1.526,0,1.624-1.106,2.814-2.506,4.032ZM2.2,17H3.7V15.46H2.2Z" transform="translate(1556.199 6.219)" fill="#625444"/>
  </g>
</svg>
