<svg xmlns="http://www.w3.org/2000/svg" width="24.75" height="18" viewBox="0 0 24.75 18">
  <g id="Gruppe_25360" data-name="Gruppe 25360" transform="translate(-278 -8.5)">
    <g id="truck" transform="translate(278 -55.5)">
      <g id="Gruppe_25359" data-name="Gruppe 25359" transform="translate(0 64)">
        <path id="Pfad_98306" data-name="Pfad 98306" d="M21.375,68.5H18V64H2.25A2.249,2.249,0,0,0,0,66.25V78.625H2.25a3.375,3.375,0,0,0,6.75,0h6.75a3.375,3.375,0,0,0,6.75,0h2.25V73ZM5.625,80.312a1.687,1.687,0,1,1,1.687-1.687A1.685,1.685,0,0,1,5.625,80.312Zm13.5,0a1.687,1.687,0,1,1,1.687-1.687A1.685,1.685,0,0,1,19.125,80.312ZM18,73V70.188h2.812L23.023,73Z" transform="translate(0 -64)" fill="#c7c2bd"/>
      </g>
    </g>
    <path id="Pfad_98307" data-name="Pfad 98307" d="M.882,11.294h.786V8.658H2.746V8.1H1.668V6.223H3.059V5.66H.882Zm2.734,0H4.4V8.651h.612l.737,2.643h.758l-.8-2.824c.5-.167.7-.654.7-1.315,0-1.071-.529-1.5-1.656-1.5H3.616ZM4.4,8.088V6.223H4.75c.716,0,.9.271.9.932,0,.723-.285.932-.946.932ZM7.24,11.294h2.2v-.563H8.026V8.665H9.16V8.109H8.026V6.244h1.4V5.66H7.24Zm2.845,0h2.2v-.563H10.871V8.665H12V8.109H10.871V6.244h1.4V5.66H10.085Z" transform="translate(280.375 6.706)" fill="#625444"/>
  </g>
</svg>
