<svg xmlns="http://www.w3.org/2000/svg" xmlns:xlink="http://www.w3.org/1999/xlink" width="217" height="39.684" viewBox="0 0 217 39.684">
  <defs>
    <clipPath id="clip-path">
      <path id="Pfad_98300" data-name="Pfad 98300" d="M2.113,9.7c-4.036,7.687-1.922,14.99,2.5,20.371,2.5,2.979,4.708,5.573,5.573,9.993,0,0,7.879-9.128-.288-17.3C7.589,19.789,1.92,15.85,2.113,9.7Z" transform="translate(0.036 -9.7)"/>
    </clipPath>
    <clipPath id="clip-path-2">
      <rect id="Rechteck_3418" data-name="Rechteck 3418" width="21.908" height="43.047"/>
    </clipPath>
  </defs>
  <g id="zigarrenversand-logo-orange-quer" transform="translate(0.036)">
    <path id="Pfad_98240" data-name="Pfad 98240" d="M193.6,21.6Z" transform="translate(-7.576 -0.845)" fill="#f29100"/>
    <g id="Gruppe_25350" data-name="Gruppe 25350" transform="translate(3.073)">
      <path id="Pfad_98241" data-name="Pfad 98241" d="M21.8,16.79,31.985,2.377H28.142c-2.21,0-4.036,1.249-5,4.036l-.48,1.441H22.28V1.8H34.868L24.106,16.982H21.8ZM35.444,1.8h2.306v.192L27.661,16.405h3.747a6.227,6.227,0,0,0,5.669-4.42l.48-1.441h.384v6.534H24.779Z" transform="translate(-3.927 -0.07)" fill="#f6a14d"/>
      <path id="Pfad_98242" data-name="Pfad 98242" d="M41.9,16.6l.961-.192c2.018-.48,2.4-1.057,2.4-2.69V5.067c0-1.633-.384-2.21-2.4-2.69L41.9,2.184V1.8h2.69c2.306,0,2.787,1.057,2.787,3.075V14c0,2.018-.192,3.075-2.979,3.075H42V16.6Zm4.612.384c1.057-.288,1.249-1.345,1.249-2.979V4.875c0-1.73-.288-2.69-1.249-2.979h6.726V2.28l-.961.192c-2.018.48-2.4,1.057-2.4,2.69v8.648c0,1.633.384,2.21,2.4,2.69l.961.192v.384l-6.726-.1Z" transform="translate(-4.714 -0.07)" fill="#f6a14d"/>
      <path id="Pfad_98243" data-name="Pfad 98243" d="M56,9.375a7.742,7.742,0,0,1,6.342-7.591h0c-2.883,1.249-4.324,4.324-4.324,7.4,0,3.651,1.537,6.342,4.42,7.783h0C58.4,16.005,56,13.315,56,9.375Zm2.69.1c0-5.093,3.267-8.071,6.822-8.071,3.075,0,4.8,1.345,5.285,1.345.288,0,.865-.288,2.114-1.345H73.2V7.454h-.384a9,9,0,0,0-2.883-4.228A7.644,7.644,0,0,0,65.8,1.977c-3.651,0-4.9,3.267-4.9,7.4s1.537,7.495,5.285,7.495a5.6,5.6,0,0,0,2.787-.577c.48-.192.673-.577.673-1.345V13.027c0-1.633-.288-2.306-1.537-2.594l-1.153-.288V9.76h5.381c-.673.384-.865,1.345-.769,2.5v3.267c-1.441,1.249-3.075,1.826-5.861,1.826C61.477,17.351,58.69,13.891,58.69,9.471Zm13.452,5.861V12.258c0-1.345.384-2.5,1.345-2.5h2.883v.384l-.961.288c-.961.288-1.345.961-1.345,2.5v4.036h-.288A6.584,6.584,0,0,0,72.143,15.333Z" transform="translate(-5.266 -0.055)" fill="#f6a14d"/>
      <path id="Pfad_98244" data-name="Pfad 98244" d="M77.5,16.578l.384-.1c1.345-.288,2.21-1.633,3.267-3.555l5-9.32L92.394,14.56a7.587,7.587,0,0,0,1.826,2.4H87.877v-.384l.865-.192c1.057-.192,1.633-.577,1.633-1.153a1.789,1.789,0,0,0-.384-1.057l-.961-1.73H82.016v.1a3.542,3.542,0,0,0-.48,1.633c0,1.057.673,1.826,2.018,2.21l.673.192v.384H77.6l-.1-.384Zm11.05-4.612L85.187,6.2l-3.075,5.765Zm4.228,2.306L86.244,3.126,87.2,1.3h.384l7.975,13.644a2.768,2.768,0,0,0,2.21,1.537l.288.1v.384H95.468C94.315,16.962,93.451,15.425,92.778,14.272Z" transform="translate(-6.107 -0.051)" fill="#f6a14d"/>
      <path id="Pfad_98245" data-name="Pfad 98245" d="M99.8,16.6l.961-.192c2.018-.48,2.4-1.057,2.4-2.69V5.067c0-1.633-.384-2.21-2.4-2.69L99.8,2.184V1.8h2.69c2.306,0,2.787,1.057,2.787,3.075V14c0,2.018-.192,3.075-2.979,3.075H99.9Zm4.612.384c1.057-.288,1.249-1.345,1.249-2.979V4.875c0-1.73-.288-2.69-1.249-2.979h7.11c2.21,0,5.285,1.345,5.285,4.036,0,2.4-2.018,4.132-5.381,4.228a7.86,7.86,0,0,0,2.306.961l2.306,4.036a4.084,4.084,0,0,0,1.633,1.922h-2.979l-3.94-6.918h-2.979v3.651c0,1.633.384,2.21,2.4,2.69l.961.192v.384l-6.726-.1Zm6.15-7.495a3.945,3.945,0,0,0,3.267-1.249,3.876,3.876,0,0,0,.769-2.5,3.524,3.524,0,0,0-.865-2.594,4.694,4.694,0,0,0-3.075-.865h-2.883V9.487Zm3.747.288a4.157,4.157,0,0,0,2.883-3.843c0-1.922-1.153-3.171-3.267-3.94h0a7.813,7.813,0,0,1,3.363.865,3.453,3.453,0,0,1,2.018,3.075A3.472,3.472,0,0,1,117.192,9.1a26.4,26.4,0,0,1-2.883.673Zm2.018,5-2.114-3.747h.48a9.467,9.467,0,0,0,1.633-.192l2.018,3.555c.769,1.249,1.153,1.826,2.4,2.114l.384.1v.384h-2.114C117.48,16.982,116.9,15.829,116.327,14.772Z" transform="translate(-6.979 -0.07)" fill="#f6a14d"/>
      <path id="Pfad_98246" data-name="Pfad 98246" d="M124.6,16.6l.961-.192c2.018-.48,2.4-1.057,2.4-2.69V5.067c0-1.633-.384-2.21-2.4-2.69l-.961-.192V1.8h2.69c2.306,0,2.787,1.057,2.787,3.075V14c0,2.018-.192,3.075-2.979,3.075h-2.4Zm4.612.384c1.057-.288,1.249-1.345,1.249-2.979V4.875c0-1.73-.288-2.69-1.249-2.979h7.11c2.21,0,5.189,1.345,5.189,4.036,0,2.4-2.018,4.132-5.381,4.228a7.86,7.86,0,0,0,2.306.961l2.306,4.036a4.084,4.084,0,0,0,1.633,1.922H139.4l-3.94-6.918h-2.979v3.651c0,1.633.384,2.21,2.4,2.69l.961.192v.384l-6.63-.1Zm6.15-7.495a3.945,3.945,0,0,0,3.267-1.249,3.876,3.876,0,0,0,.769-2.5,3.524,3.524,0,0,0-.865-2.594,4.694,4.694,0,0,0-3.075-.865h-2.883V9.487Zm3.747.288a4.157,4.157,0,0,0,2.883-3.843c0-1.922-1.153-3.171-3.267-3.94h0a7.813,7.813,0,0,1,3.363.865,3.453,3.453,0,0,1,2.018,3.075A3.472,3.472,0,0,1,141.992,9.1a26.4,26.4,0,0,1-2.883.673Zm2.018,5-2.114-3.747h.48a9.467,9.467,0,0,0,1.633-.192l2.018,3.555c.769,1.249,1.153,1.826,2.4,2.114l.384.1v.384h-2.114C142.28,16.982,141.7,15.829,141.127,14.772Z" transform="translate(-7.95 -0.07)" fill="#f6a14d"/>
      <path id="Pfad_98247" data-name="Pfad 98247" d="M148.9,16.6l.961-.192c2.018-.48,2.4-1.057,2.4-2.69V5.067c0-1.633-.384-2.21-2.4-2.69l-.961-.192V1.8h2.69c2.306,0,2.787,1.057,2.787,3.075V14c0,2.018-.192,3.075-2.979,3.075H149Zm4.612.384c1.057-.288,1.249-1.345,1.249-2.979V4.875c0-1.73-.288-2.69-1.249-2.979h13.548V7.085h-.384l-.288-.865a5.019,5.019,0,0,0-4.8-3.747h-4.708V8.718h1.153c1.922,0,2.979-.577,3.555-2.114l.48-1.441h.384V12.85h-.384l-.48-1.441c-.577-1.633-1.633-2.21-3.555-2.21h-1.153v7.207H161.1a5.434,5.434,0,0,0,5.189-3.651l.577-1.441h.384v5.669Z" transform="translate(-8.9 -0.07)" fill="#f6a14d"/>
      <path id="Pfad_98248" data-name="Pfad 98248" d="M175.516,5.163v7.4a3.463,3.463,0,0,0,2.69,3.747l1.345.384v.384H171.48v-.384l.865-.384a3.487,3.487,0,0,0,2.5-3.747V4.683l-.192-.192a6.319,6.319,0,0,0-2.787-2.018L171,2.28V1.8h3.651l13.741,13.068v2.4h-.384Zm.1-3.363h2.883l9.513,9.032V6.22c0-2.21-.961-3.267-2.69-3.747l-1.345-.384V1.8h7.975v.384l-.865.384a3.487,3.487,0,0,0-2.5,3.747V14.1Z" transform="translate(-9.765 -0.07)" fill="#f6a14d"/>
      <path id="Pfad_98249" data-name="Pfad 98249" d="M23.494,26.006a3.021,3.021,0,0,0-2.306-1.826l-.288-.1V23.7H31.085v.384l-.865.192c-1.057.192-1.633.577-1.633,1.153a1.789,1.789,0,0,0,.384,1.057l4.42,7.975,3.267-6.342a3.542,3.542,0,0,0,.48-1.633c0-1.057-.673-1.826-2.018-2.21l-.673-.1V23.8h6.63v.384l-.384.1c-1.345.288-2.21,1.633-3.267,3.651l-6.054,11.53h-.288Zm.673-1.73H23.3l-.48.288c.1.1.288.192.384.288Zm1.922,0h-.865l-1.633.961c.1.1.192.288.288.384Zm1.922.1h-.865L24.071,26.1l.192.384Zm0,1.057a1.219,1.219,0,0,1,.1-.577h0l-3.555,2.018.192.384Zm.288.961c-.1-.192-.1-.288-.192-.384l-3.075,1.73.192.384Zm.384.865-.192-.384L25.512,28.6l.192.384Zm.48.865-.192-.384-2.979,1.73.192.384Zm.48.865-.192-.384-2.979,1.73.192.384Zm.48.865-.192-.384-2.883,1.73.192.384Zm.48.769-.192-.384L27.53,31.867l.192.384Zm.48.865-.192-.384L28.01,32.732l.192.384Zm.48.865-.192-.384-2.883,1.73.192.384Zm.48.865-.192-.384-2.883,1.633.192.384Zm.48.769-.192-.384L29.452,35.23l.192.384Zm.48.865-.192-.384L29.932,36.1l.192.384Zm-.48,1.441.384-.769-2.5,1.441.192.384Zm-.865,1.633.384-.769-1.153.673.192.384Zm6.054-13.644h-.865l-.288.192c.1.1.288.192.288.288Zm1.922,0h-.865l-1.633.961c.1.1.1.288.192.384Zm-1.922,2.306a5.364,5.364,0,0,1,.48-.769h0l-.769.48v.48Z" transform="translate(-3.892 -0.927)" fill="#f6a14d"/>
      <path id="Pfad_98250" data-name="Pfad 98250" d="M42.8,38.6l.961-.192c2.018-.48,2.4-1.057,2.4-2.69V27.067c0-1.633-.384-2.21-2.4-2.69l-.961-.192V23.8H60.961v5.189h-.384l-.288-.865a5.019,5.019,0,0,0-4.8-3.747H50.775v6.342h1.153c1.922,0,2.979-.577,3.555-2.114l.48-1.441h.384V34.85h-.384l-.48-1.441c-.577-1.633-1.633-2.21-3.555-2.21H50.775v7.207H55a5.434,5.434,0,0,0,5.189-3.651l.577-1.441h.384v5.669H42.8ZM45.875,24.28H45.01l.48.192ZM46.547,38.5,50.2,36.387v-.48L45.683,38.5ZM47.893,24.28h-.961l-.961.577a1.326,1.326,0,0,1,.288.384ZM50.2,35.234v-.48l-3.555,2.114a4.685,4.685,0,0,1-.288.673Zm-.48-10.954h-.865l-2.4,1.345.1.48Zm.48,9.8V33.6L46.74,35.619V36.2Zm0-8.84v-.48L46.74,26.779v.48Zm0,1.057v-.48L46.74,27.836v.577Zm0,1.153v-.577L46.74,28.893v.48Zm0,1.057v-.48L46.74,30.046v.48Zm0,1.153v-.48L46.74,31.2v.48Zm0,1.153v-.577L46.74,32.256v.48Zm0,1.057v-.48L46.74,33.409v.48Zm0,1.153v-.48L46.74,34.562v.48ZM48.469,38.5l1.73-.961v-.48L47.6,38.5Zm1.73,0v-.384l-.673.384Zm5.477-7.783v-.48l-1.633.961a1.28,1.28,0,0,1,.48.288Zm0,1.153v-.577l-.769.384a1.326,1.326,0,0,1,.288.384Zm0-2.21v-.577h0a5.705,5.705,0,0,1-.384.769Zm0,3.363v-.577l-.192.192.192.384Zm2.21,5.477,2.787-1.633v-.48l-1.153.673a4.458,4.458,0,0,1-2.21,1.441h.577ZM59.135,24.28H58.27l-.288.192.48.288ZM59.807,38.5l.865-.48v-.48l-1.73.961Zm.673-13.837V24.28h-.288l-1.249.769c.1.1.288.192.384.288Zm0,1.153v-.48l-.769.48L60,26.2Zm.1,9.9v-.673h0c-.1.288-.288.673-.384.961Zm-.1-8.648v-.673l-.288.1.288.577Z" transform="translate(-4.749 -0.931)" fill="#f6a14d"/>
      <path id="Pfad_98251" data-name="Pfad 98251" d="M65.2,38.6l.961-.192c2.018-.48,2.4-1.057,2.4-2.69V27.067c0-1.633-.384-2.21-2.4-2.69l-.961-.192V23.8H77.115a12.333,12.333,0,0,1,5.573.961,3.394,3.394,0,0,1-.1,6.246,13.246,13.246,0,0,1-5.477,1.057H76.73a6.565,6.565,0,0,0,3.363,1.057,9.467,9.467,0,0,0,1.633-.192l2.018,3.555c.769,1.249,1.153,1.826,2.4,2.114l.384.1v.384H80l-3.94-6.918H73.079v3.651c0,1.633.384,2.21,2.4,2.69l.961.192v.384H65.2ZM68.563,24.28H67.506l.577.288ZM69.236,38.5l3.459-2.018V36l-4.324,2.5ZM70.485,24.28H69.62l-1.153.673c.1.1.192.288.288.384ZM72.6,35.427V34.85l-3.555,2.114c-.1.288-.1.48-.288.673h0ZM72.407,24.28h-.865l-2.594,1.441c0,.192.1.288.1.48Zm.192,9.993v-.48L69.14,35.811v.48Zm0-8.936v-.48L69.14,26.875v.48Zm0,1.153v-.577L69.14,27.932v.577Zm0,1.057v-.48L69.14,29.085v.48Zm0,1.153v-.48L69.14,30.238v.48Zm0,1.057v-.48L69.14,31.295v.48Zm0,1.153v-.577L69.14,32.352v.577Zm0,1.153v-.48L69.14,33.6v.48Zm0,1.153V32.64L69.14,34.658v.48ZM71.157,38.5l1.73-.961c-.1-.1-.1-.288-.192-.384L70.2,38.6h.961Zm2.018,0,.48-.288a1.326,1.326,0,0,1-.384-.288l-.961.577Zm2.883-7.014c2.5,0,3.94-1.153,3.94-3.651s-1.441-3.555-3.94-3.555H73.175v7.207Zm2.018,1.73a4.685,4.685,0,0,0-.673-.288h0l.288.48Zm1.153.288-.673-.1-.577.48.192.384Zm1.922,0c-.288,0-.673.1-.961.1h0l-1.922,1.057.192.384Zm-1.826-2.114,4.8-2.787c0-.192.1-.384.1-.577l-4.708,2.69a4.266,4.266,0,0,1-1.057.769h0Zm2.69,2.787-.192-.384-3.075,1.73.192.384Zm-2.21-9.8-.673-.1-.288.1a1.326,1.326,0,0,1,.384.288ZM82.5,35.042l-.192-.384-3.075,1.73.288.384ZM81.247,24.665c-.192-.1-.384-.1-.577-.192l-.961.577.288.288Zm1.73,11.242-.192-.384-3.075,1.73.192.384ZM82.4,25.145c-.192-.1-.288-.192-.48-.192l-1.633.961c.1.1.1.288.192.384Zm1.057,11.53h0l-.192-.384-3.075,1.73.288.384Zm.673-9.224a.866.866,0,0,0-.1-.48l-3.651,2.114a1.366,1.366,0,0,1-.192.577Zm-.865-1.73a1.326,1.326,0,0,0-.384-.288l-2.4,1.441.1.48Zm.577.769-.288-.288-3.075,1.73v.577ZM82.5,30.43a3.874,3.874,0,0,0,1.345-1.057l-2.787,1.633h0A4.53,4.53,0,0,0,82.5,30.43ZM82.3,38.5l1.633-.961-.288-.384L81.343,38.5Zm1.922,0,.384-.288-.288-.288-.961.577Z" transform="translate(-5.626 -0.931)" fill="#f6a14d"/>
      <path id="Pfad_98252" data-name="Pfad 98252" d="M92.906,38.009a4.011,4.011,0,0,0-2.018,1.345H90.6V33.589h.384a7.85,7.85,0,0,0,2.787,4.036,9.411,9.411,0,0,0,4.612,1.345c2.306,0,4.708-.769,4.708-2.5,0-1.057-.673-1.922-2.5-2.306l-4.8-.865c-3.267-.577-5.093-2.306-5.093-4.9,0-3.267,3.171-4.9,7.207-4.9a12.466,12.466,0,0,1,5.189,1.345c.384,0,1.057-.48,2.018-1.345h.288v5.573h-.384a7.322,7.322,0,0,0-2.787-3.843,8.116,8.116,0,0,0-4.42-1.249c-2.114,0-4.132.673-4.132,2.5,0,1.345,1.153,1.826,2.883,2.114l4.8.865c3.171.577,4.708,2.21,4.708,4.708,0,3.075-3.459,5.189-7.687,5.189A15.355,15.355,0,0,1,92.906,38.009ZM91.465,35.8l-.192-.384-.192.1v.48Zm.48.865c-.1-.1-.192-.288-.288-.384l-.673.384v.48Zm.769.673-.288-.288-1.345.769v.48Zm.769-9.609a.5.5,0,0,1-.192-.384l-2.21,1.249.1.48Zm-.384-.865v-.48L91.177,27.44c0,.192-.1.384-.1.577ZM94.251,28.4l-.384-.288L91.273,29.65a.728.728,0,0,0,.192.384Zm-1.057-2.69a2.877,2.877,0,0,1,.384-.769h0l-1.633.961a3.9,3.9,0,0,0-.48.865ZM95.5,28.881c-.192-.1-.384-.1-.577-.192l-3.171,1.826.288.288Zm1.345.288-.48-.1h-.192l-3.843,2.21c.1.1.288.192.384.288Zm1.441.288-.577-.192-4.42,2.5a2.1,2.1,0,0,0,.48.288Zm1.537.192-.673-.1L94.443,32.34l.577.192Zm1.441.288h0l-.673-.1-4.8,2.787.673.1Zm1.345.384a1.366,1.366,0,0,1-.577-.192l-4.8,2.787.673.1Zm1.057.48a2.1,2.1,0,0,0-.48-.288L98.671,33.2l.673.1Zm.865.673a1.326,1.326,0,0,0-.384-.288l-4.036,2.306.384.1.288.1Zm.577.769-.192-.384-3.363,1.922c.192.1.384.1.577.192Zm.288.961c0-.192-.1-.288-.1-.48l-2.787,1.633c.1.1.288.192.384.288Zm-.673,3.267-1.537.865a2.015,2.015,0,0,1-.577.769h0A6.451,6.451,0,0,0,104.725,36.472Zm0-12.011v-.384h0A3.471,3.471,0,0,1,103,25.133h0l.192.1Zm.769,9.8v-.48l-2.306,1.345c.1.1.1.288.192.384Zm-.192,1.249a1.366,1.366,0,0,0,.192-.577l-1.922,1.153v.48Zm-.577-9.993v-.48l-1.249.673.288.288Zm0,1.057v-.48l-.673.384.192.384Zm0,1.153v-.577l-.192.1.192.48Z" transform="translate(-6.619 -0.919)" fill="#f6a14d"/>
      <path id="Pfad_98253" data-name="Pfad 98253" d="M106.9,38.578l.384-.1c1.345-.288,2.21-1.633,3.267-3.555L116.7,23.3h.288l7.975,13.644a2.768,2.768,0,0,0,2.21,1.537l.288.1v.384H117.277v-.384l.865-.192c1.057-.192,1.633-.577,1.633-1.153a1.789,1.789,0,0,0-.384-1.057l-.961-1.73h-7.014v.1a3.542,3.542,0,0,0-.48,1.633c0,1.057.673,1.826,2.018,2.21l.673.192v.384H107l-.1-.384Zm3.651-1.345a.866.866,0,0,1-.1-.48l-.673.384a8.663,8.663,0,0,1-.865.961h0Zm-.192,1.249.673-.384a1.327,1.327,0,0,1-.288-.384l-1.345.769h.961Zm7.687-4.516L114.683,28.2l-3.075,5.765Zm0-7.783-.192-.384-2.787,1.537-.192.288.1.192Zm.48.865-.192-.384-2.979,1.73.192.384Zm-.961-1.73-.192-.384-1.345.769-.384.673Zm1.441,2.594-.192-.384-2.979,1.73.192.384Zm.48.769L119.3,28.3l-2.979,1.73.192.384Zm-2.4-4.132-.192-.384-.384.769Zm2.883,5-.192-.384-2.979,1.73.192.384Zm.48.865-.192-.384-2.979,1.73.192.384Zm.48.769-.192-.384-2.979,1.73.192.384Zm.48.865-.192-.384-2.979,1.73.192.384Zm.577.865-.192-.384-2.979,1.73.192.384Zm.48.865-.192-.384-2.979,1.73.192.384Zm-2.4,4.708,3.843-2.21-.288-.384-3.555,2.018a1.631,1.631,0,0,1-.577.577h.577Zm2.883-3.94-.192-.384-2.979,1.73.192.384Zm.48.865-.192-.384-2.979,1.73c0,.192.1.288.1.48Zm-1.441,3.075,2.4-1.345-.192-.384-3.075,1.73h.865Zm1.922,0,1.057-.577a1.327,1.327,0,0,1-.288-.384l-1.633.961Zm1.73,0h0c-.1-.1-.192-.1-.288-.192l-.384.192Z" transform="translate(-7.257 -0.912)" fill="#f6a14d"/>
      <path id="Pfad_98254" data-name="Pfad 98254" d="M132.816,27.167v7.4a3.463,3.463,0,0,0,2.69,3.747l1.345.384v.384H128.78V38.7l.865-.384a3.487,3.487,0,0,0,2.5-3.747V26.687l-.192-.192a6.319,6.319,0,0,0-2.787-2.018l-.865-.192V23.9h7.3l9.513,9.032V28.416c0-2.21-.961-3.267-2.69-3.747l-1.345-.384V23.9h7.975v.384l-.865.384a3.487,3.487,0,0,0-2.5,3.747V39.37h-.384ZM130.99,38.505l2.114-1.249a.728.728,0,0,1-.192-.384l-1.153.673a2.926,2.926,0,0,1-1.249.865h0l.48.1Zm1.057-14.221h-.865l-.577.288.384.288Zm2.018.1H133.2l-1.537.961.384.288Zm-1.153,14.125.865-.48c-.1-.1-.288-.192-.288-.288l-1.441.865.865-.1Zm2.69-14.029-.192-.192h-.384l-2.787,1.633.1.1.288.192ZM132.72,36.391l-.1-.384h0a1.366,1.366,0,0,1-.192.577Zm3.651-11.146-.288-.288-2.979,1.73.288.288Zm.769.673-.384-.288-2.979,1.73.384.288Zm-2.5,12.587h0l-.384-.192-.288.192Zm3.171-11.915-.288-.288-2.979,1.73.288.288Zm.769.673-.288-.288-2.979,1.73.288.288Zm.673.673-.288-.288-2.979,1.73.288.288Zm.769.769-.384-.288-2.979,1.73.288.288Zm.769.673-.288-.288-2.979,1.73.288.288Zm.769.673-.288-.288-2.979,1.73.288.288Zm.673.673-.288-.288-3.075,1.73.288.288Zm.769.769-.384-.288-2.979,1.73.288.288Zm.673.673-.288-.288-2.979,1.73.288.288Zm.769.673-.288-.288-2.979,1.73.288.288Zm.769.673-.288-.288-3.075,1.73.384.288Zm0,1.153v-.577l-2.69,1.537.288.288Zm0,1.153v-.48l-1.922,1.057.288.288Zm-1.153-11.53h-.673l.384.192Zm1.153,12.587v-.48l-1.153.673.288.288Zm.673-12.587h-.865l-.865.48.288.288Zm-.673,13.26-.48.288.48.48Zm1.057-12.3a4.31,4.31,0,0,1,1.249-.961h-.48l-2.114,1.153a.728.728,0,0,1,.192.384Zm-.769,1.537a1.366,1.366,0,0,1,.192-.577l-.288.192.1.384Z" transform="translate(-8.094 -0.935)" fill="#f6a14d"/>
      <path id="Pfad_98255" data-name="Pfad 98255" d="M151.9,38.6l.961-.192c2.018-.48,2.4-1.057,2.4-2.69V27.067c0-1.633-.384-2.21-2.4-2.69l-.961-.192V23.8h10.762a16.608,16.608,0,0,1,7.207,1.537,6.945,6.945,0,0,1,3.363,6.054,6.641,6.641,0,0,1-3.363,6.054,15.076,15.076,0,0,1-7.207,1.537H151.9Zm3.075-14.317h-.865a1.623,1.623,0,0,1,.48.192Zm.48,14.221,3.94-2.306v-.48l-4.8,2.787ZM156.7,24.28h-.865l-.865.48.288.288Zm2.69,10.858v-.577L155.84,36.58a1.366,1.366,0,0,1-.192.577Zm-.673-10.858h-.961l-2.21,1.249a.578.578,0,0,1,.1.384Zm.673.769v-.48l-3.555,2.018v.48Zm0,1.057v-.48l-3.459,2.018v.48Zm0,1.153v-.48L155.84,28.8v.48Zm0,1.153v-.48l-3.459,2.018v.48Zm0,1.057v-.48l-3.459,2.018v.577Zm0,1.153v-.48l-3.459,2.018v.48Zm0,1.153v-.48l-3.459,2.018v.48Zm0,1.057v-.48l-3.459,2.018v.48Zm0,1.153V33.5l-3.555,2.018V36ZM157.377,38.5l1.922-1.153v-.48L156.416,38.5Zm2.018,0v-.577l-.961.577Zm3.267-.1c4.612,0,5.573-2.306,5.573-7.014,0-4.8-1.057-7.014-5.573-7.014h-2.787V38.405Zm4.708-13.548-.577-.192-.192.1c.1.1.288.192.384.288Zm2.21,12.107a6.293,6.293,0,0,0,1.73-1.441l-4.228,2.5h0A11.479,11.479,0,0,0,169.58,36.964Zm-1.057-11.627-.48-.192-.769.384.288.288Zm3.363,9.224c.1-.192.192-.48.288-.673l-4.228,2.4a4.512,4.512,0,0,1-.577.865Zm-2.306-8.744h0l-.48-.288-1.249.769.192.384Zm.961.577c-.1-.1-.288-.192-.384-.288l-1.826,1.057.1.48Zm1.826,6.822c0-.192.1-.384.1-.577l-4.036,2.306a1.366,1.366,0,0,1-.192.577Zm-1.153-6.054-.288-.288-2.306,1.345.1.48Zm1.345,4.708v-.48l-3.94,2.306-.1.577Zm-.769-3.94-.288-.384-2.787,1.633v.48Zm.769,2.883v-.48l-3.747,2.21v.577Zm-.384-2.018-.192-.384-3.171,1.826v.48Zm.288.961-.1-.48-3.555,2.018v.48Z" transform="translate(-9.018 -0.931)" fill="#f6a14d"/>
      <path id="Pfad_98256" data-name="Pfad 98256" d="M174.3,37a2.5,2.5,0,1,1,2.5,2.594A2.5,2.5,0,0,1,174.3,37Zm3.844-1.441a2.1,2.1,0,0,0-.48-.288L174.877,36.9v.48Zm.577.769c-.1-.1-.1-.288-.192-.384l-3.459,1.922a.5.5,0,0,0,.192.384Zm-1.73-1.345h0a2.022,2.022,0,0,0-1.826,1.057Zm1.826,2.306v-.48l-3.267,1.826c.1.1.288.192.384.288Zm-1.922,1.826a1.981,1.981,0,0,0,1.73-1.057L176.7,39.112Z" transform="translate(-9.894 -1.35)" fill="#f6a14d"/>
      <path id="Pfad_98257" data-name="Pfad 98257" d="M180.3,31.375c0-4.9,4.228-7.975,9.224-7.975,3.651,0,4.9,1.345,5.477,1.345a4.715,4.715,0,0,0,2.114-1.345h.288v6.246h-.384c-1.057-3.363-3.459-5.669-6.822-5.669-3.843,0-5,3.267-5,7.687,0,4.228,1.73,7.11,5.669,7.11a6.712,6.712,0,0,0,4.228-1.249,5.228,5.228,0,0,0,2.21-3.555h.577a5.706,5.706,0,0,1-2.5,4.036,8.882,8.882,0,0,1-5.285,1.441C184.72,39.351,180.3,36.66,180.3,31.375Zm4.324-1.537v-.577l-3.844,2.21v.48Zm.192-1.153.1-.577-3.94,2.306v.577Zm-.192,2.306v-.577l-3.651,2.21.1.48Zm.48-3.555c.1-.192.1-.48.192-.673l-4.132,2.4a1.366,1.366,0,0,1-.192.577Zm-.48,4.708v-.48l-3.363,1.922.192.48Zm1.153-6.246a2.312,2.312,0,0,1,.577-.769h0l-4.324,2.5a2.876,2.876,0,0,0-.384.769Zm-1.057,7.3v-.48l-3.075,1.73.192.384Zm.1,1.057-.1-.48-2.69,1.537.288.384Zm.288.961-.1-.384L182.7,36.18l.288.288Zm1.153-10.762h0a8.282,8.282,0,0,0-3.267,1.826h0Zm-.769,11.627L185.3,35.7l-1.922,1.153.384.288Zm.48.865-.288-.384-1.537.865.48.288Zm.673.673-.288-.288-1.057.577.48.192Zm.865.673-.384-.288-.673.384.577.192Zm1.153.577c-.192-.1-.577-.192-.769-.288l-.192.192c.288,0,.673.1.961.1Zm8.264-13.644v-.48l-1.633.961.288.288Zm0,1.153V25.9l-.961.577.288.384Zm0,1.153v-.577l-.48.288.192.384Z" transform="translate(-10.129 -0.916)" fill="#f6a14d"/>
      <path id="Pfad_98258" data-name="Pfad 98258" d="M201.1,38.6l.961-.192c2.018-.48,2.4-1.057,2.4-2.69V27.067c0-1.633-.384-2.21-2.4-2.69l-.961-.192V23.8h11.05v.384l-.961.288c-1.826.48-2.21,1.057-2.21,2.69V30.91h7.975V27.163c0-1.633-.384-2.21-2.21-2.69l-.961-.288V23.8h11.05v.384l-.961.192c-2.018.48-2.4,1.057-2.4,2.69v8.648c0,1.633.384,2.21,2.4,2.69l.961.192v.384h-11.05V38.6l.961-.288c1.826-.48,2.21-1.057,2.21-2.69V31.295h-7.975v4.324c0,1.633.384,2.21,2.21,2.69l.961.288v.384H201.1Zm2.787-.1,4.708-2.69v-.48l-3.843,2.21a3.313,3.313,0,0,1-1.249.961h.384Zm1.249-14.221h-.865l-.384.192a1.327,1.327,0,0,1,.384.288Zm1.922,0h-.865l-1.537.865.192.384ZM208.5,34.658v-.577L204.944,36.1a1.219,1.219,0,0,1-.1.577Zm-2.69,3.843,2.787-1.633c0-.192-.1-.288-.1-.48L204.847,38.5Zm3.267-14.221h-.865l-3.171,1.826v.48Zm-.384,1.345a1.494,1.494,0,0,1,.577-.769h0l-4.228,2.4v.577Zm-.192,1.249V26.3l-3.555,2.018v.48Zm0,1.057v-.48l-3.459,2.018v.48Zm0,1.153V28.6l-3.459,2.018v.48Zm0,1.057v-.48l-3.459,2.018v.577Zm0,1.153v-.48l-3.459,2.018v.48Zm0,1.153v-.48l-3.459,2.018v.48Zm0,1.057v-.48l-3.459,2.018v.48Zm-.769,5,1.249-.769c-.1-.1-.192-.288-.288-.384L206.769,38.5Zm1.922,0,.192-.1c-.192-.1-.288-.192-.48-.288l-.673.384h.961Zm7.11-14.221h-.577l.288.1Zm.577,14.221,3.843-2.21v-.48l-4.708,2.69Zm1.249-14.221h-.865l-.769.48.288.288Zm2.594,10.858v-.48l-3.555,2.018a1.03,1.03,0,0,1-.192.577ZM220.51,24.28h-.865l-2.21,1.249.1.48Zm1.922,0h-.865l-3.94,2.306v.48Zm-1.153,1.826a1.366,1.366,0,0,1,.192-.577l-3.747,2.114v.48Zm-.1,1.249v-.577L217.723,28.8v.48Zm0,1.057v-.577l-3.459,2.018v.48Zm0,1.153v-.48L217.723,31.1v.48Zm0,1.153v-.48l-3.459,2.018v.384Zm0,1.057v-.48l-3.459,2.018v.577Zm0,1.153v-.48l-3.459,2.018v.48Zm0,1.057v-.577l-3.459,2.018V36ZM219.261,38.5l2.114-1.249a.578.578,0,0,1-.1-.384L218.4,38.5Zm1.922,0,.769-.48-.288-.288-1.345.769Zm1.633,0h0l-.288-.192-.288.192Z" transform="translate(-10.943 -0.931)" fill="#f6a14d"/>
      <path id="Pfad_98259" data-name="Pfad 98259" d="M6.659,0C2.623,4.036.99,11.819,8.1,18.833c1.537,1.441,5.381,5,6.918,10.281,3.075-6.726,1.826-11.627-.961-16.143C11.175,8.167,6.755,6.342,6.659,0Z" transform="translate(-3.2)" fill="#f6a14d"/>
    </g>
    <g id="Gruppe_25354" data-name="Gruppe 25354" transform="translate(-0.036 9.32)">
      <g id="Gruppe_25353" data-name="Gruppe 25353" clip-path="url(#clip-path)">
        <g id="Gruppe_25352" data-name="Gruppe 25352" transform="translate(-2.656 -1.633)">
          <g id="Gruppe_25351" data-name="Gruppe 25351" clip-path="url(#clip-path-2)">
            <path id="Pfad_98260" data-name="Pfad 98260" d="M-2.8,7.452,20.549-6l.288.48L-2.512,7.933Z" transform="translate(2.8 -7.452)" fill="#f6a14d"/>
            <path id="Pfad_98261" data-name="Pfad 98261" d="M-2.8,8.552,20.549-4.9l.288.48L-2.512,9.033Z" transform="translate(2.8 -7.495)" fill="#f6a14d"/>
            <path id="Pfad_98262" data-name="Pfad 98262" d="M-2.8,9.752,20.549-3.7l.288.48L-2.512,10.233Z" transform="translate(2.8 -7.542)" fill="#f6a14d"/>
            <path id="Pfad_98263" data-name="Pfad 98263" d="M-2.8,10.952,20.549-2.5l.288.48L-2.512,11.433Z" transform="translate(2.8 -7.589)" fill="#f6a14d"/>
            <path id="Pfad_98264" data-name="Pfad 98264" d="M-2.8,12.052,20.549-1.4l.288.48L-2.512,12.533Z" transform="translate(2.8 -7.632)" fill="#f6a14d"/>
            <path id="Pfad_98265" data-name="Pfad 98265" d="M-2.8,13.252,20.549-.2l.288.48L-2.512,13.733Z" transform="translate(2.8 -7.679)" fill="#f6a14d"/>
            <path id="Pfad_98266" data-name="Pfad 98266" d="M-2.8,14.452,20.549,1l.288.48L-2.512,14.933Z" transform="translate(2.8 -7.726)" fill="#f6a14d"/>
            <path id="Pfad_98267" data-name="Pfad 98267" d="M-2.8,15.652,20.549,2.2l.288.48L-2.512,16.133Z" transform="translate(2.8 -7.773)" fill="#f6a14d"/>
            <path id="Pfad_98268" data-name="Pfad 98268" d="M-2.8,16.752,20.549,3.3l.288.48L-2.512,17.233Z" transform="translate(2.8 -7.816)" fill="#f6a14d"/>
            <path id="Pfad_98269" data-name="Pfad 98269" d="M-2.8,17.952,20.549,4.5l.288.48L-2.512,18.433Z" transform="translate(2.8 -7.863)" fill="#f6a14d"/>
            <path id="Pfad_98270" data-name="Pfad 98270" d="M-2.8,19.152,20.549,5.7l.288.48L-2.512,19.633Z" transform="translate(2.8 -7.91)" fill="#f6a14d"/>
            <path id="Pfad_98271" data-name="Pfad 98271" d="M-2.8,20.252,20.549,6.8l.288.48L-2.512,20.733Z" transform="translate(2.8 -7.953)" fill="#f6a14d"/>
            <path id="Pfad_98272" data-name="Pfad 98272" d="M-2.8,21.452,20.549,8l.288.48L-2.512,21.933Z" transform="translate(2.8 -8)" fill="#f6a14d"/>
            <path id="Pfad_98273" data-name="Pfad 98273" d="M-2.8,22.652,20.549,9.2l.288.48L-2.512,23.133Z" transform="translate(2.8 -8.047)" fill="#f6a14d"/>
            <path id="Pfad_98274" data-name="Pfad 98274" d="M-2.8,23.752,20.549,10.3l.288.48L-2.512,24.233Z" transform="translate(2.8 -8.09)" fill="#f6a14d"/>
            <path id="Pfad_98275" data-name="Pfad 98275" d="M-2.8,24.952,20.549,11.5l.288.48L-2.512,25.433Z" transform="translate(2.8 -8.137)" fill="#f6a14d"/>
            <path id="Pfad_98276" data-name="Pfad 98276" d="M-2.8,26.152,20.549,12.7l.288.48L-2.512,26.633Z" transform="translate(2.8 -8.184)" fill="#f6a14d"/>
            <path id="Pfad_98277" data-name="Pfad 98277" d="M-2.8,27.252,20.549,13.8l.288.48L-2.512,27.733Z" transform="translate(2.8 -8.227)" fill="#f6a14d"/>
            <path id="Pfad_98278" data-name="Pfad 98278" d="M-2.8,28.452,20.549,15l.288.48L-2.512,28.933Z" transform="translate(2.8 -8.274)" fill="#f6a14d"/>
            <path id="Pfad_98279" data-name="Pfad 98279" d="M-2.8,29.652,20.549,16.2l.288.48L-2.512,30.133Z" transform="translate(2.8 -8.321)" fill="#f6a14d"/>
            <path id="Pfad_98280" data-name="Pfad 98280" d="M-2.8,30.752,20.549,17.3l.288.48L-2.512,31.233Z" transform="translate(2.8 -8.364)" fill="#f6a14d"/>
            <path id="Pfad_98281" data-name="Pfad 98281" d="M-2.8,31.952,20.549,18.5l.288.48L-2.512,32.433Z" transform="translate(2.8 -8.411)" fill="#f6a14d"/>
            <path id="Pfad_98282" data-name="Pfad 98282" d="M-2.8,33.152,20.549,19.7l.288.48L-2.512,33.633Z" transform="translate(2.8 -8.458)" fill="#f6a14d"/>
            <path id="Pfad_98283" data-name="Pfad 98283" d="M-2.8,34.352,20.549,20.9l.288.48L-2.512,34.833Z" transform="translate(2.8 -8.505)" fill="#f6a14d"/>
            <path id="Pfad_98284" data-name="Pfad 98284" d="M-2.8,35.452,20.549,22l.288.48L-2.512,35.933Z" transform="translate(2.8 -8.548)" fill="#f6a14d"/>
            <path id="Pfad_98285" data-name="Pfad 98285" d="M-2.8,36.652,20.549,23.2l.288.48L-2.512,37.133Z" transform="translate(2.8 -8.595)" fill="#f6a14d"/>
            <path id="Pfad_98286" data-name="Pfad 98286" d="M-2.8,37.852,20.549,24.4l.288.48L-2.512,38.333Z" transform="translate(2.8 -8.642)" fill="#f6a14d"/>
            <path id="Pfad_98287" data-name="Pfad 98287" d="M-2.8,38.952,20.549,25.5l.288.48L-2.512,39.433Z" transform="translate(2.8 -8.685)" fill="#f6a14d"/>
            <path id="Pfad_98288" data-name="Pfad 98288" d="M-2.8,40.152,20.549,26.7l.288.48L-2.512,40.633Z" transform="translate(2.8 -8.732)" fill="#f6a14d"/>
            <path id="Pfad_98289" data-name="Pfad 98289" d="M-2.8,41.352,20.549,27.9l.288.48L-2.512,41.833Z" transform="translate(2.8 -8.779)" fill="#f6a14d"/>
            <path id="Pfad_98290" data-name="Pfad 98290" d="M-2.8,42.452,20.549,29l.288.48L-2.512,42.933Z" transform="translate(2.8 -8.822)" fill="#f6a14d"/>
            <path id="Pfad_98291" data-name="Pfad 98291" d="M-2.8,43.652,20.549,30.2l.288.48L-2.512,44.133Z" transform="translate(2.8 -8.869)" fill="#f6a14d"/>
            <path id="Pfad_98292" data-name="Pfad 98292" d="M-2.8,44.852,20.549,31.4l.288.48L-2.512,45.333Z" transform="translate(2.8 -8.916)" fill="#f6a14d"/>
            <path id="Pfad_98293" data-name="Pfad 98293" d="M-2.8,45.952,20.549,32.5l.288.48L-2.512,46.433Z" transform="translate(2.8 -8.959)" fill="#f6a14d"/>
            <path id="Pfad_98294" data-name="Pfad 98294" d="M-2.8,47.152,20.549,33.7l.288.48L-2.512,47.633Z" transform="translate(2.8 -9.006)" fill="#f6a14d"/>
            <path id="Pfad_98295" data-name="Pfad 98295" d="M-2.8,48.352,20.549,34.9l.288.48L-2.512,48.833Z" transform="translate(2.8 -9.052)" fill="#f6a14d"/>
            <path id="Pfad_98296" data-name="Pfad 98296" d="M-2.8,49.452,20.549,36l.288.48L-2.512,49.933Z" transform="translate(2.8 -9.096)" fill="#f6a14d"/>
            <path id="Pfad_98297" data-name="Pfad 98297" d="M-2.8,50.652,20.549,37.2l.288.48L-2.512,51.133Z" transform="translate(2.8 -9.142)" fill="#f6a14d"/>
            <path id="Pfad_98298" data-name="Pfad 98298" d="M-2.8,51.852,20.549,38.4l.288.48L-2.512,52.333Z" transform="translate(2.8 -9.189)" fill="#f6a14d"/>
            <path id="Pfad_98299" data-name="Pfad 98299" d="M-2.8,53.052,20.549,39.6l.288.48L-2.512,53.437Z" transform="translate(2.8 -9.236)" fill="#f6a14d"/>
          </g>
        </g>
      </g>
    </g>
    <path id="Pfad_98301" data-name="Pfad 98301" d="M1.728,11.814c.673,3.843,3.363,6.63,5.573,9.032.769.865,1.537,1.633,2.114,2.306h0c3.267,3.267,4.324,7.014,3.075,11.146a20.076,20.076,0,0,1-2.114,4.516c-.961-3.747-2.883-6.15-5.189-8.84L5,29.686c-2.594-3.171-6.438-9.7-3.267-17.872M2.113,9.7c-4.036,7.687-1.922,14.99,2.5,20.371,2.5,2.979,4.708,5.573,5.573,9.993,0,0,7.879-9.128-.288-17.3C7.589,19.789,1.92,15.85,2.113,9.7Z" transform="translate(0 -0.38)" fill="#f6a14d"/>
  </g>
</svg>
